<svg width="24" height="24" viewBox="0 0 24 24" fill="none" xmlns="http://www.w3.org/2000/svg"><g clip-path="url(#sfg436ef2a)"><path d="M12.5 1v12M23.5 18l-10.794-5.596M1 18l11.5-5.596" stroke="#FED3B7"></path><path d="M23.98 12.177v6.14c0 .24-.07.37-.29.48-3.667 1.71-7.324 3.43-10.99 5.15-.15.07-.27.07-.42 0-4.017-1.75-8.044-3.49-12.06-5.23-.16-.07-.22-.16-.22-.34v-12.5c0-.18.06-.26.22-.34 4.036-1.82 8.073-3.64 12.1-5.47.2-.09.36-.09.56.01 3.596 1.81 7.193 3.61 10.8 5.41.24.12.32.25.32.52-.01 2.06 0 4.12 0 6.17h-.02zM12 1.507c-.09.03-.19.07-.28.11-.999.45-2.008.89-3.007 1.34-2.418 1.08-4.826 2.16-7.244 3.24-.16.07-.26.13-.26.34v11.19c-.03.17.12.17.21.21 3.627 1.61 7.264 3.23 10.89 4.84.15.07.27.07.42 0 3.278-1.64 6.565-3.27 9.842-4.9.08-.04.21-.06.17-.2 0-.47 0-.93.01-1.4v-9.7c0-.21-.08-.3-.25-.38-2.208-1.1-4.416-2.21-6.624-3.31-.89-.44-1.769-.88-2.658-1.31-.15-.08-.29-.16-.44-.24-.11-.06-.22-.13-.35-.05-.15.09-.31.16-.469.24l.04-.02z" fill="#F5A16B"></path><path opacity=".45" d="M.26 10.752l11.971-4.723a.47.47 0 0 1 .328 0l11.192 4.723c.318.137.338.569.02.726L12.58 16.956a.407.407 0 0 1-.369 0L.24 11.478a.39.39 0 0 1 .02-.726z" fill="url(#sfg17a56101)"></path><path d="M23.927 11s-.071.101-.133.132l-11.196 5.655a.396.396 0 0 1-.37 0L.254 11.131A.36.36 0 0 1 .11 11c-.154.193-.164 1.186.082 1.307l11.975 5.655c.113.05.256.05.37 0l11.196-5.655c.246-.121.348-1.104.194-1.297V11z" fill="#7289F9"></path><path d="M14 13.001h.8c.141 0 .208.025.2.19a52.63 52.63 0 0 0 0 1.619c0 .165-.059.19-.2.19h-1.6c-.141 0-.208-.025-.2-.19a52.63 52.63 0 0 0 0-1.619c0-.165.059-.198.2-.19.267.008.534 0 .8 0z" fill="#3050EF" fill-opacity=".35"></path><path d="M9.02 6.001h.797c.117 0 .183.017.183.158v1.7c0 .108-.041.141-.15.141H8.159C8.04 8 8 7.959 8 7.842V6.167c0-.133.041-.174.174-.166h.847zM17.02 7.001h.797c.117 0 .183.017.183.158v1.7c0 .108-.041.141-.15.141h-1.692C16.04 9 16 8.959 16 8.842V7.167c0-.133.041-.174.174-.166h.847z" fill="#3050EF"></path></g><defs><linearGradient id="sfg17a56101" x1="5.657" y1="17.447" x2="17.427" y2="5.169" gradientUnits="userSpaceOnUse"><stop stop-color="#BAC4F6"></stop><stop offset="1" stop-color="#435193"></stop></linearGradient><clipPath id="sfg436ef2a"><path fill="#fff" d="M0 0h24v24H0z"></path></clipPath></defs></svg>